<?xml version="1.0" encoding="UTF-8" standalone="no"?>
<!-- Created with Inkscape (http://www.inkscape.org/) -->

<svg
   width="152.41823mm"
   height="66.44857mm"
   viewBox="0 0 152.41823 66.44857"
   version="1.1"
   id="svg1625"
   xml:space="preserve"
   inkscape:version="1.2 (dc2aedaf03, 2022-05-15)"
   sodipodi:docname="resources.svg"
   xmlns:inkscape="http://www.inkscape.org/namespaces/inkscape"
   xmlns:sodipodi="http://sodipodi.sourceforge.net/DTD/sodipodi-0.dtd"
   xmlns:xlink="http://www.w3.org/1999/xlink"
   xmlns="http://www.w3.org/2000/svg"
   xmlns:svg="http://www.w3.org/2000/svg"
   xmlns:rdf="http://www.w3.org/1999/02/22-rdf-syntax-ns#"
   xmlns:cc="http://creativecommons.org/ns#"
   xmlns:dc="http://purl.org/dc/elements/1.1/"><title
     id="title3551">Azure Resources</title><sodipodi:namedview
     id="namedview1627"
     pagecolor="#505050"
     bordercolor="#ffffff"
     borderopacity="1"
     inkscape:showpageshadow="0"
     inkscape:pageopacity="0"
     inkscape:pagecheckerboard="1"
     inkscape:deskcolor="#505050"
     inkscape:document-units="mm"
     showgrid="false"
     inkscape:zoom="1.6819304"
     inkscape:cx="440.86247"
     inkscape:cy="290.44008"
     inkscape:window-width="3200"
     inkscape:window-height="1711"
     inkscape:window-x="3191"
     inkscape:window-y="-9"
     inkscape:window-maximized="1"
     inkscape:current-layer="layer2" /><defs
     id="defs1622"><radialGradient
       inkscape:collect="always"
       xlink:href="#a7a1c431-6c6d-4a8f-9a69-8da437e5b0c5"
       id="radialGradient4757"
       gradientUnits="userSpaceOnUse"
       cx="9"
       cy="7.3499999"
       r="6.4200001" /><radialGradient
       id="a7a1c431-6c6d-4a8f-9a69-8da437e5b0c5"
       cx="9"
       cy="7.3499999"
       r="6.4200001"
       gradientUnits="userSpaceOnUse"><stop
         offset="0"
         stop-color="#b77af4"
         id="stop7193" /><stop
         offset="0.21"
         stop-color="#b378f2"
         id="stop7195" /><stop
         offset="0.43"
         stop-color="#a672ed"
         id="stop7197" /><stop
         offset="0.65"
         stop-color="#9267e4"
         id="stop7199" /><stop
         offset="0.88"
         stop-color="#7559d8"
         id="stop7201" /><stop
         offset="1"
         stop-color="#624fd0"
         id="stop7203" /></radialGradient><linearGradient
       inkscape:collect="always"
       xlink:href="#ec0c4f0d-5c8e-4882-96a1-89d61808eb49"
       id="linearGradient4759"
       gradientUnits="userSpaceOnUse"
       x1="9.0200005"
       y1="3.9100001"
       x2="9.0799999"
       y2="11.49" /><linearGradient
       id="ec0c4f0d-5c8e-4882-96a1-89d61808eb49"
       x1="9.0200005"
       y1="3.9100001"
       x2="9.0799999"
       y2="11.49"
       gradientUnits="userSpaceOnUse"><stop
         offset="0"
         stop-color="#f2f2f2"
         id="stop7206" /><stop
         offset="0.23"
         stop-color="#f1f1f2"
         stop-opacity="0.99"
         id="stop7208" /><stop
         offset="0.37"
         stop-color="#ededf1"
         stop-opacity="0.95"
         id="stop7210" /><stop
         offset="0.48"
         stop-color="#e7e5f0"
         stop-opacity="0.89"
         id="stop7212" /><stop
         offset="0.58"
         stop-color="#dedbee"
         stop-opacity="0.81"
         id="stop7214" /><stop
         offset="0.67"
         stop-color="#d3ceeb"
         stop-opacity="0.7"
         id="stop7216" /><stop
         offset="0.76"
         stop-color="#c4bee8"
         stop-opacity="0.57"
         id="stop7218" /><stop
         offset="0.84"
         stop-color="#b4abe5"
         stop-opacity="0.41"
         id="stop7220" /><stop
         offset="0.92"
         stop-color="#a095e1"
         stop-opacity="0.22"
         id="stop7222" /><stop
         offset="0.99"
         stop-color="#8b7ddc"
         stop-opacity="0.02"
         id="stop7224" /><stop
         offset="1"
         stop-color="#897bdc"
         stop-opacity="0"
         id="stop7226" /></linearGradient><linearGradient
       inkscape:collect="always"
       xlink:href="#a997e203-1d7d-4cb9-b131-5dc44e029b46"
       id="linearGradient4761"
       gradientUnits="userSpaceOnUse"
       x1="5.23"
       y1="17.450001"
       x2="5.23"
       y2="8.0900002" /><linearGradient
       id="a997e203-1d7d-4cb9-b131-5dc44e029b46"
       x1="5.23"
       y1="17.450001"
       x2="5.23"
       y2="8.0900002"
       gradientUnits="userSpaceOnUse"><stop
         offset="0"
         stop-color="#1988d9"
         id="stop9919" /><stop
         offset="0.9"
         stop-color="#54aef0"
         id="stop9921" /></linearGradient><linearGradient
       inkscape:collect="always"
       xlink:href="#e122e9d8-aee5-4f1a-a60e-b1eae355daa5"
       id="linearGradient4763"
       gradientUnits="userSpaceOnUse"
       x1="11.5"
       y1="12.45"
       x2="11.5"
       y2="0.55000001" /><linearGradient
       id="e122e9d8-aee5-4f1a-a60e-b1eae355daa5"
       x1="11.5"
       y1="12.45"
       x2="11.5"
       y2="0.55000001"
       gradientUnits="userSpaceOnUse"><stop
         offset="0"
         stop-color="#198ab3"
         id="stop9924" /><stop
         offset="0.01"
         stop-color="#198bb4"
         id="stop9926" /><stop
         offset="0.44"
         stop-color="#27b2d7"
         id="stop9928" /><stop
         offset="0.79"
         stop-color="#2fcbed"
         id="stop9930" /><stop
         offset="1"
         stop-color="#32d4f5"
         id="stop9932" /></linearGradient><linearGradient
       inkscape:collect="always"
       xlink:href="#bbaa244d-7a73-4def-ae33-b68783fa5b51"
       id="linearGradient4771"
       gradientUnits="userSpaceOnUse"
       x1="9"
       y1="15.63"
       x2="9"
       y2="-2.51" /><linearGradient
       id="bbaa244d-7a73-4def-ae33-b68783fa5b51"
       x1="9"
       y1="15.63"
       x2="9"
       y2="-2.51"
       gradientUnits="userSpaceOnUse"><stop
         offset="0"
         stop-color="#0078d4"
         id="stop11005" /><stop
         offset="0.16"
         stop-color="#1380da"
         id="stop11007" /><stop
         offset="0.53"
         stop-color="#3c91e5"
         id="stop11009" /><stop
         offset="0.82"
         stop-color="#559cec"
         id="stop11011" /><stop
         offset="1"
         stop-color="#5ea0ef"
         id="stop11013" /></linearGradient><linearGradient
       inkscape:collect="always"
       xlink:href="#fa74d148-d6d0-4c75-94f7-94732b8c62b0"
       id="linearGradient4773"
       gradientUnits="userSpaceOnUse"
       x1="12.26"
       y1="7.1700001"
       x2="12.26"
       y2="17.209999" /><linearGradient
       id="fa74d148-d6d0-4c75-94f7-94732b8c62b0"
       x1="12.26"
       y1="7.1700001"
       x2="12.26"
       y2="17.209999"
       gradientUnits="userSpaceOnUse"><stop
         offset="0"
         stop-color="#ffd70f"
         id="stop11016" /><stop
         offset="0.27"
         stop-color="#ffd310"
         id="stop11018" /><stop
         offset="0.54"
         stop-color="#ffc613"
         id="stop11020" /><stop
         offset="0.83"
         stop-color="#feb217"
         id="stop11022" /><stop
         offset="1"
         stop-color="#fea11b"
         id="stop11024" /></linearGradient><linearGradient
       id="a773af38-43e4-4fd2-9485-f8aac63ca91b"
       x1="5.5700002"
       y1="17.5"
       x2="5.5700002"
       y2="0.5"
       gradientUnits="userSpaceOnUse"><stop
         offset="0.05"
         stop-color="#949494"
         id="stop3265" /><stop
         offset="0.36"
         stop-color="#979797"
         id="stop3267" /><stop
         offset="0.54"
         stop-color="#9f9f9f"
         id="stop3269" /><stop
         offset="0.69"
         stop-color="#adadad"
         id="stop3271" /><stop
         offset="0.73"
         stop-color="#b3b3b3"
         id="stop3273" /></linearGradient><linearGradient
       id="b4779ae6-74a5-486d-8aad-cd011859785a"
       x1="10.56"
       y1="6.02"
       x2="10.56"
       y2="19.709999"
       gradientUnits="userSpaceOnUse"><stop
         offset="0.18"
         stop-color="#5ea0ef"
         id="stop3276" /><stop
         offset="1"
         stop-color="#0078d4"
         id="stop3278" /></linearGradient><radialGradient
       id="e2cf8746-c9a8-4eee-86c2-4951983c6032"
       cx="13428.81"
       cy="3518.8601"
       r="56.669998"
       gradientTransform="matrix(0.15,0,0,0.15,-2005.33,-518.83)"
       gradientUnits="userSpaceOnUse"><stop
         offset="0.18"
         stop-color="#5ea0ef"
         id="stop3320" /><stop
         offset="1"
         stop-color="#0078d4"
         id="stop3322" /></radialGradient><linearGradient
       id="bdd213dd-d313-473c-8ff4-0133fd3a9033"
       x1="4.4000001"
       y1="11.48"
       x2="4.3699999"
       y2="7.5300002"
       gradientUnits="userSpaceOnUse"><stop
         offset="0"
         stop-color="#ccc"
         id="stop3325" /><stop
         offset="1"
         stop-color="#fcfcfc"
         id="stop3327" /></linearGradient><linearGradient
       id="afcc63c5-3649-4476-a742-bcb53a569f3c"
       x1="10.13"
       y1="15.45"
       x2="10.13"
       y2="11.9"
       gradientUnits="userSpaceOnUse"><stop
         offset="0"
         stop-color="#ccc"
         id="stop3330" /><stop
         offset="1"
         stop-color="#fcfcfc"
         id="stop3332" /></linearGradient><linearGradient
       id="bd873f0b-9954-4aa5-a3df-9f4c64e8729d"
       x1="14.18"
       y1="11.15"
       x2="14.18"
       y2="7.3800001"
       gradientUnits="userSpaceOnUse"><stop
         offset="0"
         stop-color="#ccc"
         id="stop3335" /><stop
         offset="1"
         stop-color="#fcfcfc"
         id="stop3337" /></linearGradient><linearGradient
       inkscape:collect="always"
       xlink:href="#bdd213dd-d313-473c-8ff4-0133fd3a9033"
       id="linearGradient3399"
       gradientUnits="userSpaceOnUse"
       x1="4.4000001"
       y1="11.48"
       x2="4.3699999"
       y2="7.5300002" /><linearGradient
       inkscape:collect="always"
       xlink:href="#afcc63c5-3649-4476-a742-bcb53a569f3c"
       id="linearGradient3401"
       gradientUnits="userSpaceOnUse"
       x1="10.13"
       y1="15.45"
       x2="10.13"
       y2="11.9" /><linearGradient
       inkscape:collect="always"
       xlink:href="#bdd213dd-d313-473c-8ff4-0133fd3a9033"
       id="linearGradient3403"
       gradientUnits="userSpaceOnUse"
       x1="4.4000001"
       y1="11.48"
       x2="4.3699999"
       y2="7.5300002" /><linearGradient
       inkscape:collect="always"
       xlink:href="#afcc63c5-3649-4476-a742-bcb53a569f3c"
       id="linearGradient3405"
       gradientUnits="userSpaceOnUse"
       x1="10.13"
       y1="15.45"
       x2="10.13"
       y2="11.9" /><linearGradient
       id="bb67b154-af8f-4a53-a9ce-aa046b9398e9"
       x1="13.18"
       y1="13.01"
       x2="8.6300001"
       y2="4.3800001"
       gradientUnits="userSpaceOnUse"><stop
         offset="0"
         stop-color="#1988d9"
         id="stop3407" /><stop
         offset="0.9"
         stop-color="#54aef0"
         id="stop3409" /></linearGradient><linearGradient
       id="a47d7138-084a-471d-8d63-744e75b9e8a3"
       x1="11.22"
       y1="10.5"
       x2="14.37"
       y2="15.93"
       gradientUnits="userSpaceOnUse"><stop
         offset="0.1"
         stop-color="#54aef0"
         id="stop3412" /><stop
         offset="0.29"
         stop-color="#4fabee"
         id="stop3414" /><stop
         offset="0.51"
         stop-color="#41a2e9"
         id="stop3416" /><stop
         offset="0.74"
         stop-color="#2a93e0"
         id="stop3418" /><stop
         offset="0.88"
         stop-color="#1988d9"
         id="stop3420" /></linearGradient></defs><g
     inkscape:groupmode="layer"
     id="layer2"
     inkscape:label="Background"
     transform="translate(-38.154742,-29.660079)"><rect
       style="fill:#ffffff;stroke:#000000;stroke-width:0.185228;stroke-linejoin:round;stroke-dasharray:0.185228, 0.555681"
       id="rect2363"
       width="152.233"
       height="66.263344"
       x="38.247356"
       y="29.752693"
       ry="0.21430685" /></g><g
     inkscape:label="Layer 1"
     inkscape:groupmode="layer"
     id="layer1"
     transform="translate(-38.154742,-29.660079)"><g
       id="g7270"
       transform="matrix(0.41175745,0,0,0.41175745,88.974462,49.837085)"><path
         d="m 10.23,17.39 0.81,-0.87 V 14.2 H 7 v 2.32 l 0.81,0.87 A 0.32,0.32 0 0 0 8,17.5 h 2 a 0.32,0.32 0 0 0 0.23,-0.11 z"
         fill="#cecece"
         id="path7233" /><path
         d="M 9,0.5 A 5.89,5.89 0 0 0 3.09,7.07 c 0.27,2.47 2.62,3.62 3.29,6.75 a 0.49,0.49 0 0 0 0.47,0.38 h 4.3 a 0.49,0.49 0 0 0 0.47,-0.38 c 0.67,-3.13 3,-4.28 3.29,-6.75 A 5.89,5.89 0 0 0 9,0.5 Z M 7,14.2"
         fill="url(#a7a1c431-6c6d-4a8f-9a69-8da437e5b0c5)"
         id="path7235"
         style="fill:url(#radialGradient4757)" /><path
         d="M 11.46,3.79 A 1.4,1.4 0 0 0 10.11,5.23 V 6 H 8 V 5.23 A 1.41,1.41 0 0 0 6.59,3.79 1.4,1.4 0 0 0 5.24,5.23 1.41,1.41 0 0 0 6.59,6.68 h 0.64 v 6 a 0.36,0.36 0 0 0 0.72,0 v -6 h 2.16 v 6 a 0.36,0.36 0 1 0 0.72,0 v -6 h 0.63 A 1.4,1.4 0 0 0 12.81,5.23 1.4,1.4 0 0 0 11.46,3.79 Z M 7.23,6 H 6.55 A 0.74,0.74 0 0 1 5.87,5.23 0.74,0.74 0 0 1 6.55,4.46 0.74,0.74 0 0 1 7.23,5.23 Z m 4.28,0 H 10.83 V 5.19 a 0.68,0.68 0 1 1 1.35,0 A 0.73,0.73 0 0 1 11.51,6 Z"
         fill="url(#ec0c4f0d-5c8e-4882-96a1-89d61808eb49)"
         id="path7237"
         style="fill:url(#linearGradient4759)" /><polygon
         points="6.96,15.36 6.96,15.8 11.04,15.01 11.04,14.56 "
         fill="#999999"
         id="polygon7239" /><polygon
         points="6.96,16.52 7.27,16.86 11.04,16.11 11.04,15.67 6.96,16.48 "
         fill="#999999"
         id="polygon7241" /></g><g
       id="g9966"
       transform="matrix(0.41419343,0,0,0.41419343,91.01157,71.175065)"><path
         d="m 5.59,13.13 h 4.32 v 4.32 H 5.59 Z M 1.15,17.45 H 4.87 V 13.13 H 0.55 v 3.72 a 0.6,0.6 0 0 0 0.6,0.6 z m -0.6,-5 H 4.87 V 8.09 H 0.55 Z"
         fill="url(#a997e203-1d7d-4cb9-b131-5dc44e029b46)"
         id="path9939"
         style="fill:url(#linearGradient4761)" /><path
         d="m 11.5,0.55 a 5.89,5.89 0 0 1 5.95,6 5.89,5.89 0 0 1 -5.95,5.95 H 5.55 v -6 A 5.89,5.89 0 0 1 11.5,0.55 Z"
         fill-rule="evenodd"
         fill="url(#e122e9d8-aee5-4f1a-a60e-b1eae355daa5)"
         id="path9941"
         style="fill:url(#linearGradient4763)" /><rect
         x="7.5900002"
         y="5.6500001"
         width="1.36"
         height="4.0799999"
         fill="#ffffff"
         id="rect9943" /><rect
         x="10.31"
         y="7.0100002"
         width="1.36"
         height="2.72"
         fill="#ffffff"
         id="rect9945" /><rect
         x="13.03"
         y="4.29"
         width="1.36"
         height="5.4400001"
         fill="#ffffff"
         id="rect9947" /></g><rect
       style="fill:none;stroke:#86d633;stroke-width:0.1519;stroke-dasharray:0.607604, 0.303801;stroke-dashoffset:0;stroke-opacity:1"
       id="rect15957"
       width="68.709511"
       height="48.889919"
       x="43.528973"
       y="42.628262"
       ry="2.0407743" /><g
       id="g6595"
       transform="matrix(0.28571415,0,0,0.28571415,56.334196,49.670339)"
       style="stroke-width:0.644153"><title
         id="title6585" /><path
         id="path6587"
         class="msportalfx-svg-c11"
         d="M 11.5,1 C 8.5,1 6,3.5 6,6.5 6,9 7.6,11 9.7,11.7 L 8.5,13 10,14.3 8.5,15.7 10,17 l -1.5,1.5 3,2.8 2.5,-2.6 v -7.3 c 1.8,-1 3,-2.8 3,-5 C 17,3.4 14.5,1 11.5,1 Z m 1,4 c 0,0 -0.2,0 -0.3,0.2 C 12.1,5.4 12,5.4 11.9,5.4 H 11 L 10.8,5.2 10.6,4.9 V 4 L 10.8,3.8 11.1,3.6 H 12 l 0.2,0.2 0.2,0.3 V 5 Z"
         inkscape:connector-curvature="0"
         style="fill:#fcd116;stroke-width:0.644153" /><path
         id="path6589"
         class="msportalfx-svg-c10"
         d="m 12,12 v 7.2 l 1,-1 V 11.8 A 5.5,5.5 0 0 1 12,12 Z"
         inkscape:connector-curvature="0"
         style="opacity:0.4;fill:#ff8c00;stroke-width:0.644153" /><path
         id="path6591"
         class="msportalfx-svg-c01"
         d="M 11.5,10 A 3.5,3.5 0 0 0 15,7 H 8 a 3.5,3.5 0 0 0 3.5,3 z"
         inkscape:connector-curvature="0"
         style="opacity:0.4;fill:#ffffff;stroke-width:0.644153" /><path
         id="path6593"
         class="msportalfx-svg-c14"
         d="m 17.4,3.8 c 0.3,0.6 0.4,1 0.5,1.7 a 9.5,9.5 0 0 1 3,7 C 20.9,17.7 16.6,22 11.4,22 6.2,22 2,17.7 2,12.5 a 9.5,9.5 0 0 1 3,-7 L 5.6,3.8 A 10.5,10.5 0 0 0 1,12.5 C 1,18.3 5.7,23 11.5,23 17.3,23 22,18.3 22,12.5 22,8.9 20.2,5.7 17.4,3.8 Z"
         inkscape:connector-curvature="0"
         style="fill:#7fba00;stroke-width:0.644153" /></g><g
       id="g3347"
       transform="translate(156.58217,-64.972648)"
       inkscape:export-xdpi="599.9762"
       inkscape:export-ydpi="599.9762"><text
         inkscape:export-ydpi="300"
         inkscape:export-xdpi="300"
         xml:space="preserve"
         style="font-style:normal;font-variant:normal;font-weight:normal;font-stretch:normal;font-size:3.52778px;line-height:1.25;font-family:sans-serif;-inkscape-font-specification:'sans-serif, Normal';font-variant-ligatures:normal;font-variant-caps:normal;font-variant-numeric:normal;font-feature-settings:normal;text-align:start;letter-spacing:0px;word-spacing:0px;writing-mode:lr-tb;text-anchor:start;fill:#000000;fill-opacity:1;stroke:none;stroke-width:0.264583"
         x="20.213869"
         y="101.36546"
         id="text6903"><tspan
           id="tspan6901"
           sodipodi:role="line"
           x="20.213869"
           y="101.36546"
           style="font-style:normal;font-variant:normal;font-weight:normal;font-stretch:normal;font-size:3.52778px;line-height:0;font-family:sans-serif;-inkscape-font-specification:'sans-serif, Normal';font-variant-ligatures:normal;font-variant-caps:normal;font-variant-numeric:normal;font-feature-settings:normal;text-align:start;writing-mode:lr-tb;text-anchor:start;stroke-width:0.264583">Azure</tspan></text><path
         inkscape:export-ydpi="300"
         inkscape:export-xdpi="300"
         sodipodi:nodetypes="ccccscscccccccscsccccccc"
         inkscape:connector-curvature="0"
         id="path21"
         d="m 15.110242,101.67037 c 0.9148,-0.1616 1.67037,-0.29533 1.67905,-0.29717 l 0.0157,-0.003 -0.86367,-1.0273 c -0.47501,-0.565014 -0.86366,-1.029494 -0.86366,-1.032164 0,-0.005 0.8918,-2.46091 0.89682,-2.46965 0.002,-0.003 0.60857,1.04488 1.47116,2.53993 0.80758,1.399694 1.47338,2.553754 1.47956,2.564564 l 0.0113,0.0197 -2.74478,-3.4e-4 -2.7448,-3.7e-4 1.66328,-0.29382 z m -3.29406,-0.31328 c 0,-0.001 0.40695,-0.70788 0.90435,-1.569864 l 0.90434,-1.56724 1.0539,-0.88444 c 0.57965,-0.48644 1.05547,-0.885029 1.05737,-0.885756 0.002,-7.14e-4 -0.005,0.01846 -0.017,0.04265 -0.0112,0.02418 -0.52621,1.128756 -1.14439,2.454596 l -1.12398,2.410634 -0.81733,0.001 c -0.44952,5.8e-4 -0.81732,-1.6e-4 -0.81732,-0.002 z"
         style="fill:#0078d4;fill-opacity:1;stroke-width:0.0112274" /></g><g
       id="g856"
       transform="matrix(0.26458333,0,0,0.26458333,43.097656,35.833589)"><g
         id="g838"><path
           d="m 0.5,15.08 a 0.16,0.16 0 0 0 0.08,0.14 L 1.74,15.87 3.7,17 A 0.17,0.17 0 0 0 3.93,16.94 L 4.59,15.82 A 0.16,0.16 0 0 0 4.53,15.61 l -2.3,-1.3 A 0.17,0.17 0 0 1 2.15,14.17 V 3.85 A 0.16,0.16 0 0 1 2.23,3.71 l 2.3,-1.3 A 0.16,0.16 0 0 0 4.59,2.2 L 3.93,1.08 A 0.17,0.17 0 0 0 3.7,1 L 1.78,2.11 0.58,2.78 A 0.16,0.16 0 0 0 0.5,2.92 Z"
           fill="#949494"
           id="path832" /><path
           d="M 2.14,3.77 2.2,3.71 4.5,2.41 A 0.14,0.14 0 0 0 4.56,2.2 L 3.9,1.08 A 0.15,0.15 0 0 0 3.68,1 L 1.75,2.11 0.56,2.78 c 0,0 -0.05,0 -0.06,0.06 l 0.9,0.51 z"
           fill="#a3a3a3"
           id="path834" /><path
           d="M 4.5,15.59 2.2,14.29 A 0.22,0.22 0 0 1 2.13,14.2 l -1.62,1 h 0.05 l 1.15,0.65 2,1.11 A 0.15,0.15 0 0 0 3.93,16.9 L 4.59,15.78 A 0.14,0.14 0 0 0 4.5,15.59 Z"
           fill="#a3a3a3"
           id="path836" /></g><path
         d="m 17.5,15.08 a 0.16,0.16 0 0 1 -0.08,0.14 L 16.26,15.87 14.3,17 a 0.17,0.17 0 0 1 -0.23,-0.06 l -0.66,-1.12 a 0.16,0.16 0 0 1 0.06,-0.21 l 2.3,-1.3 a 0.17,0.17 0 0 0 0.08,-0.14 V 3.85 A 0.16,0.16 0 0 0 15.77,3.71 l -2.3,-1.3 A 0.16,0.16 0 0 1 13.41,2.2 L 14.07,1.08 A 0.17,0.17 0 0 1 14.3,1 l 1.92,1.09 1.2,0.67 A 0.16,0.16 0 0 1 17.5,2.9 Z"
         fill="#949494"
         id="path840" /><path
         d="M 15.86,3.77 15.8,3.71 13.5,2.41 A 0.14,0.14 0 0 1 13.44,2.2 L 14.1,1.08 A 0.15,0.15 0 0 1 14.32,1 l 1.93,1.09 1.19,0.67 c 0,0 0,0 0.06,0.06 l -0.9,0.51 z"
         fill="#a3a3a3"
         id="path842" /><path
         d="m 13.5,15.59 2.3,-1.3 a 0.22,0.22 0 0 0 0.07,-0.09 l 1.62,1 v 0 l -1.15,0.65 -2,1.11 A 0.15,0.15 0 0 1 14.12,16.9 l -0.66,-1.12 a 0.14,0.14 0 0 1 0.04,-0.19 z"
         fill="#a3a3a3"
         id="path844" /><polygon
         points="8.99,15.16 8.99,9.01 14.31,5.93 14.31,12.07 "
         fill="#32bedd"
         id="polygon846" /><polygon
         points="3.68,5.93 9,2.84 14.31,5.93 9,9.02 "
         fill="#9cebff"
         id="polygon848" /><polygon
         points="3.68,12.07 3.68,5.93 8.99,9.02 8.99,15.16 "
         fill="#50e6ff"
         id="polygon850" /><polygon
         points="8.99,9.01 8.99,15.16 3.68,12.07 "
         fill="#9cebff"
         id="polygon852" /><polygon
         points="8.99,9.01 8.99,15.16 14.31,12.07 "
         fill="#50e6ff"
         id="polygon854" /></g><text
       xml:space="preserve"
       style="font-style:normal;font-variant:normal;font-weight:normal;font-stretch:normal;font-size:3.175px;font-family:Calibri;-inkscape-font-specification:Calibri;text-align:start;text-anchor:start;fill:#000000;fill-opacity:1;stroke:none;stroke-width:0.264999;stroke-dasharray:none;stroke-dashoffset:0;stroke-opacity:1"
       x="53.630856"
       y="60.652065"
       id="text1098"><tspan
         sodipodi:role="line"
         id="tspan1096"
         style="stroke-width:0.265"
         x="53.630856"
         y="60.652065">KeyVault</tspan></text><text
       xml:space="preserve"
       style="font-style:normal;font-variant:normal;font-weight:normal;font-stretch:normal;font-size:3.175px;font-family:Calibri;-inkscape-font-specification:Calibri;text-align:start;text-anchor:start;fill:#000000;fill-opacity:1;stroke:none;stroke-width:0.264999;stroke-dasharray:none;stroke-dashoffset:0;stroke-opacity:1"
       x="49.067577"
       y="84.243301"
       id="text1102"><tspan
         sodipodi:role="line"
         id="tspan1100"
         style="stroke-width:0.265"
         x="49.067577"
         y="84.243301">AppConfiguration</tspan></text><text
       xml:space="preserve"
       style="font-style:normal;font-variant:normal;font-weight:normal;font-stretch:normal;font-size:3.175px;font-family:Calibri;-inkscape-font-specification:Calibri;text-align:start;text-anchor:start;fill:#000000;fill-opacity:1;stroke:none;stroke-width:0.264999;stroke-dasharray:none;stroke-dashoffset:0;stroke-opacity:1"
       x="84.677849"
       y="60.652065"
       id="text1106"><tspan
         sodipodi:role="line"
         id="tspan1104"
         style="stroke-width:0.265"
         x="84.677849"
         y="60.652065">AppInsights</tspan></text><text
       xml:space="preserve"
       style="font-style:normal;font-variant:normal;font-weight:normal;font-stretch:normal;font-size:3.175px;font-family:Calibri;-inkscape-font-specification:Calibri;text-align:start;text-anchor:start;fill:#000000;fill-opacity:1;stroke:none;stroke-width:0.264999;stroke-dasharray:none;stroke-dashoffset:0;stroke-opacity:1"
       x="84.599449"
       y="84.423836"
       id="text1110"><tspan
         sodipodi:role="line"
         id="tspan1108"
         style="stroke-width:0.265"
         x="84.599449"
         y="84.423836">LogAnalytics</tspan></text><g
       id="g11056"
       transform="matrix(0.35671819,0,0,0.35671819,57.242868,73.395497)"><path
         d="M 17.41,8.4 A 3.77,3.77 0 0 0 14.13,4.77 4.76,4.76 0 0 0 9.22,0.21 4.92,4.92 0 0 0 4.53,3.4 4.48,4.48 0 0 0 0.59,7.73 a 4.58,4.58 0 0 0 4.74,4.4 2.75,2.75 0 0 0 0.41,0 h 7.67 a 0.64,0.64 0 0 0 0.2,0 3.82,3.82 0 0 0 3.8,-3.73 z"
         fill="url(#bbaa244d-7a73-4def-ae33-b68783fa5b51)"
         id="path11031"
         style="fill:url(#linearGradient4771)" /><path
         id="ba7b3762-4752-4c4a-8a7e-af4c5e383796"
         d="m 8.14,16 v -0.6 0 L 7.53,15.19 7.37,14.78 7.68,14.16 V 14.09 L 7.49,13.9 7.26,13.67 H 7.18 L 6.58,13.97 6.17,13.86 5.91,13.19 H 5.32 v 0 L 5.12,13.8 4.67,14 4,13.62 3.56,14 v 0.08 L 3.86,14.67 3.69,15.08 3,15.38 V 16 h 0.09 l 0.63,0.21 0.17,0.41 -0.32,0.69 0.42,0.42 h 0.08 l 0.6,-0.3 0.41,0.17 0.26,0.72 h 0.59 v -0.09 l 0.21,-0.63 0.4,-0.17 0.7,0.32 0.42,-0.42 v -0.08 l -0.3,-0.59 0.11,-0.42 z m -2.51,0.55 a 0.84,0.84 0 1 1 0.83,-0.84 v 0 a 0.84,0.84 0 0 1 -0.83,0.8 z"
         fill="#76bc2d" /><path
         id="bff6fc37-370d-4b52-9427-43a5a5385267"
         d="M 17.28,12.64 V 11.47 L 17.22,11.42 16,11 15.69,10.2 16.31,9 16.37,8.87 16,8.47 15.56,8 15.4,8.08 14.23,8.68 13.43,8.45 12.92,7.15 H 11.76 L 11.7,7.21 11.3,8.4 10.48,8.71 9.13,8.07 8.31,8.89 8.39,9.05 9,10.21 8.67,11.01 7.26,11.52 v 1.17 L 7.43,12.74 8.67,13.15 9,14 l -0.64,1.35 0.82,0.83 0.16,-0.07 1.17,-0.6 0.8,0.33 0.51,1.41 H 13 V 17 l 0.41,-1.24 0.79,-0.33 1.37,0.63 0.82,-0.82 -0.08,-0.16 -0.57,-1.08 0.23,-0.82 z m -4.91,1.08 A 1.64,1.64 0 1 1 14,12.07 v 0 a 1.65,1.65 0 0 1 -1.63,1.65 z"
         fill="url(#fa74d148-d6d0-4c75-94f7-94732b8c62b0)"
         style="fill:url(#linearGradient4773)" /><path
         d="M 12.37,13.72 A 1.64,1.64 0 1 1 14,12.07 v 0 a 1.65,1.65 0 0 1 -1.63,1.65 z"
         fill="#ffffff"
         id="path11035" /></g><rect
       style="fill:none;stroke:#86d633;stroke-width:0.1519;stroke-dasharray:0.607604, 0.303801;stroke-dashoffset:0;stroke-opacity:1"
       id="rect2466"
       width="68.709511"
       height="48.889919"
       x="116.55394"
       y="42.628262"
       ry="2.0407743" /><g
       id="g3259"
       transform="matrix(0.26458333,0,0,0.26458333,118.23938,35.833589)"><g
         id="g3241"><path
           d="m 0.5,15.08 a 0.16,0.16 0 0 0 0.08,0.14 L 1.74,15.87 3.7,17 A 0.17,0.17 0 0 0 3.93,16.94 L 4.59,15.82 A 0.16,0.16 0 0 0 4.53,15.61 l -2.3,-1.3 A 0.17,0.17 0 0 1 2.15,14.17 V 3.85 A 0.16,0.16 0 0 1 2.23,3.71 l 2.3,-1.3 A 0.16,0.16 0 0 0 4.59,2.2 L 3.93,1.08 A 0.17,0.17 0 0 0 3.7,1 L 1.78,2.11 0.58,2.78 A 0.16,0.16 0 0 0 0.5,2.92 Z"
           fill="#949494"
           id="path3235" /><path
           d="M 2.14,3.77 2.2,3.71 4.5,2.41 A 0.14,0.14 0 0 0 4.56,2.2 L 3.9,1.08 A 0.15,0.15 0 0 0 3.68,1 L 1.75,2.11 0.56,2.78 c 0,0 -0.05,0 -0.06,0.06 l 0.9,0.51 z"
           fill="#a3a3a3"
           id="path3237" /><path
           d="M 4.5,15.59 2.2,14.29 A 0.22,0.22 0 0 1 2.13,14.2 l -1.62,1 h 0.05 l 1.15,0.65 2,1.11 A 0.15,0.15 0 0 0 3.93,16.9 L 4.59,15.78 A 0.14,0.14 0 0 0 4.5,15.59 Z"
           fill="#a3a3a3"
           id="path3239" /></g><path
         d="m 17.5,15.08 a 0.16,0.16 0 0 1 -0.08,0.14 L 16.26,15.87 14.3,17 a 0.17,0.17 0 0 1 -0.23,-0.06 l -0.66,-1.12 a 0.16,0.16 0 0 1 0.06,-0.21 l 2.3,-1.3 a 0.17,0.17 0 0 0 0.08,-0.14 V 3.85 A 0.16,0.16 0 0 0 15.77,3.71 l -2.3,-1.3 A 0.16,0.16 0 0 1 13.41,2.2 L 14.07,1.08 A 0.17,0.17 0 0 1 14.3,1 l 1.92,1.09 1.2,0.67 A 0.16,0.16 0 0 1 17.5,2.9 Z"
         fill="#949494"
         id="path3243" /><path
         d="M 15.86,3.77 15.8,3.71 13.5,2.41 A 0.14,0.14 0 0 1 13.44,2.2 L 14.1,1.08 A 0.15,0.15 0 0 1 14.32,1 l 1.93,1.09 1.19,0.67 c 0,0 0,0 0.06,0.06 l -0.9,0.51 z"
         fill="#a3a3a3"
         id="path3245" /><path
         d="m 13.5,15.59 2.3,-1.3 a 0.22,0.22 0 0 0 0.07,-0.09 l 1.62,1 v 0 l -1.15,0.65 -2,1.11 A 0.15,0.15 0 0 1 14.12,16.9 l -0.66,-1.12 a 0.14,0.14 0 0 1 0.04,-0.19 z"
         fill="#a3a3a3"
         id="path3247" /><polygon
         points="8.99,15.16 8.99,9.01 14.31,5.93 14.31,12.07 "
         fill="#32bedd"
         id="polygon3249" /><polygon
         points="3.68,5.93 9,2.84 14.31,5.93 9,9.02 "
         fill="#9cebff"
         id="polygon3251" /><polygon
         points="3.68,12.07 3.68,5.93 8.99,9.02 8.99,15.16 "
         fill="#50e6ff"
         id="polygon3253" /><polygon
         points="8.99,15.16 3.68,12.07 8.99,9.01 "
         fill="#9cebff"
         id="polygon3255" /><polygon
         points="8.99,15.16 14.31,12.07 8.99,9.01 "
         fill="#50e6ff"
         id="polygon3257" /></g><text
       xml:space="preserve"
       style="font-weight:300;font-size:3.52778px;font-family:Calibri;-inkscape-font-specification:'Calibri Light';text-align:start;text-anchor:start;fill:#ffffff;stroke:#000000;stroke-width:0.3;stroke-linejoin:round;stroke-dasharray:0.3, 0.899999"
       x="49.76244"
       y="39.541489"
       id="text2522"><tspan
         sodipodi:role="line"
         id="tspan2520"
         style="font-style:normal;font-variant:normal;font-weight:normal;font-stretch:normal;font-size:3.52778px;font-family:Calibri;-inkscape-font-specification:Calibri;text-align:start;text-anchor:start;fill:#000000;fill-opacity:1;stroke:none;stroke-width:0.3"
         x="49.76244"
         y="39.541489">acme-infra-dev</tspan></text><text
       xml:space="preserve"
       style="font-weight:300;font-size:3.52778px;font-family:Calibri;-inkscape-font-specification:'Calibri Light';text-align:start;text-anchor:start;fill:#ffffff;stroke:#000000;stroke-width:0.3;stroke-linejoin:round;stroke-dasharray:0.3, 0.899999"
       x="124.90409"
       y="39.541489"
       id="text3233"><tspan
         sodipodi:role="line"
         id="tspan3231"
         style="font-style:normal;font-variant:normal;font-weight:normal;font-stretch:normal;font-size:3.52778px;font-family:Calibri;-inkscape-font-specification:Calibri;text-align:start;text-anchor:start;fill:#000000;fill-opacity:1;stroke:none;stroke-width:0.3"
         x="124.90409"
         y="39.541489">acme-app-dev</tspan></text><g
       id="g3318"
       transform="matrix(0.38888889,0,0,0.38888889,128.58661,49.902293)"><path
         d="M 10.56,16.93 A 0.56,0.56 0 0 1 9.99,17.5 H 1.14 A 0.56,0.56 0 0 1 0.58,16.93 V 1.07 A 0.56,0.56 0 0 1 1.14,0.5 H 10 a 0.56,0.56 0 0 1 0.57,0.57 z"
         fill="url(#a773af38-43e4-4fd2-9485-f8aac63ca91b)"
         id="path3285"
         style="fill:url(#a773af38-43e4-4fd2-9485-f8aac63ca91b)" /><path
         d="M 2,6.46 A 1.08,1.08 0 0 1 3.13,5.38 h 5 a 1.08,1.08 0 0 1 1.05,1.08 v 0 A 1.08,1.08 0 0 1 8.1,7.55 h -5 A 1.09,1.09 0 0 1 2,6.46 Z"
         fill="#003067"
         id="path3287" /><path
         d="M 2,3.24 A 1.09,1.09 0 0 1 3.13,2.15 h 5 a 1.08,1.08 0 0 1 1.05,1.09 v 0 A 1.08,1.08 0 0 1 8.1,4.32 h -5 A 1.08,1.08 0 0 1 2,3.24 Z"
         fill="#003067"
         id="path3289" /><circle
         cx="3.1700001"
         cy="3.24"
         r="0.73000002"
         fill="#50e6ff"
         id="circle3291" /><circle
         cx="3.1700001"
         cy="6.46"
         r="0.73000002"
         fill="#50e6ff"
         id="circle3293" /><path
         d="m 17.42,14.38 a 3.12,3.12 0 0 0 -2.67,-3 3.93,3.93 0 0 0 -4,-3.8 4,4 0 0 0 -3.83,2.66 3.7,3.7 0 0 0 -3.22,3.59 3.77,3.77 0 0 0 3.86,3.67 h 0.34 6.26 0.17 a 3.15,3.15 0 0 0 3.09,-3.12 z"
         fill="url(#b4779ae6-74a5-486d-8aad-cd011859785a)"
         id="path3295"
         style="fill:url(#b4779ae6-74a5-486d-8aad-cd011859785a)" /><rect
         width="18"
         height="18"
         fill="none"
         id="rect3297"
         x="0"
         y="0" /></g><g
       id="g3397"
       transform="matrix(0.41256398,0,0,0.41256398,165.95765,48.953886)"><path
         id="ee75dd06-1aca-4f76-9d11-d05a284020ad"
         d="M 14.21,15.72 A 8.5030877,8.5030877 0 0 1 3.79,2.28 L 3.88,2.22 a 8.5,8.5 0 0 1 10.33,13.5"
         fill="url(#e2cf8746-c9a8-4eee-86c2-4951983c6032)"
         style="fill:url(#e2cf8746-c9a8-4eee-86c2-4951983c6032)" /><path
         d="M 6.69,7.23 A 13,13 0 0 1 15.6,3.65 8.47,8.47 0 0 0 14.11,2.21 14.34,14.34 0 0 0 9.42,3.31 12.54,12.54 0 0 0 5.34,6.13 2.76,2.76 0 0 1 6.69,7.23 Z"
         fill="#ffffff"
         opacity="0.6"
         id="path3345" /><path
         d="m 2.48,10.65 a 17.86,17.86 0 0 0 -0.83,2.62 7.82,7.82 0 0 0 0.62,0.92 c 0.18,0.23 0.35,0.44 0.55,0.65 A 17.94,17.94 0 0 1 3.9,11.37 2.76,2.76 0 0 1 2.48,10.65 Z"
         fill="#ffffff"
         opacity="0.6"
         id="path3347" /><path
         d="M 3.46,6.11 A 12,12 0 0 1 2.77,3.17 8.15,8.15 0 0 0 1.67,4.62 12.69,12.69 0 0 0 2.24,7 2.69,2.69 0 0 1 3.46,6.11 Z"
         fill="#f2f2f2"
         opacity="0.55"
         id="path3349" /><circle
         cx="4.3800001"
         cy="8.6800003"
         r="2.73"
         fill="url(#bdd213dd-d313-473c-8ff4-0133fd3a9033)"
         id="circle3351"
         style="fill:url(#linearGradient3399)" /><path
         d="M 8.36,13.67 A 1.77,1.77 0 0 1 8.9,12.4 11.88,11.88 0 0 1 6.37,10.54 2.74,2.74 0 0 1 4.88,11.37 13.1,13.1 0 0 0 6.33,12.65 12.12,12.12 0 0 0 8.38,13.9 1.79,1.79 0 0 1 8.36,13.67 Z"
         fill="#f2f2f2"
         opacity="0.55"
         id="path3353" /><path
         d="m 14.66,13.88 a 12,12 0 0 1 -2.76,-0.32 0.41,0.41 0 0 1 0,0.11 1.75,1.75 0 0 1 -0.51,1.24 13.69,13.69 0 0 0 3.42,0.24 8.21,8.21 0 0 0 1.19,-1.34 11.5,11.5 0 0 1 -1.34,0.07 z"
         fill="#f2f2f2"
         opacity="0.55"
         id="path3355" /><circle
         cx="10.13"
         cy="13.67"
         r="1.78"
         fill="url(#afcc63c5-3649-4476-a742-bcb53a569f3c)"
         id="circle3357"
         style="fill:url(#linearGradient3401)" /><path
         d="m 12.32,8.93 a 1.83,1.83 0 0 1 0.61,-1 25.5,25.5 0 0 1 -4.46,-4.14 16.91,16.91 0 0 1 -2,-2.92 7.64,7.64 0 0 0 -1.09,0.42 18.14,18.14 0 0 0 2.15,3.18 26.44,26.44 0 0 0 4.79,4.46 z"
         fill="#f2f2f2"
         opacity="0.7"
         id="path3359" /><circle
         cx="14.18"
         cy="9.2700005"
         r="1.89"
         fill="url(#bd873f0b-9954-4aa5-a3df-9f4c64e8729d)"
         id="circle3361"
         style="fill:url(#bd873f0b-9954-4aa5-a3df-9f4c64e8729d)" /><path
         d="M 17.35,10.54 17,10.37 v 0 L 16.7,10.21 H 16.64 L 16.38,10 H 16.31 L 16,9.8 a 1.76,1.76 0 0 1 -0.64,0.92 c 0.12,0.08 0.25,0.15 0.38,0.22 l 0.08,0.05 0.35,0.19 v 0 l 0.86,0.45 v 0 a 8.63,8.63 0 0 0 0.29,-1.11 z"
         fill="#f2f2f2"
         opacity="0.55"
         id="path3363" /><circle
         cx="4.3800001"
         cy="8.6800003"
         r="2.73"
         fill="url(#bdd213dd-d313-473c-8ff4-0133fd3a9033)"
         id="circle3365"
         style="fill:url(#linearGradient3403)" /><circle
         cx="10.13"
         cy="13.67"
         r="1.78"
         fill="url(#afcc63c5-3649-4476-a742-bcb53a569f3c)"
         id="circle3367"
         style="fill:url(#linearGradient3405)" /></g><g
       id="g3447"
       transform="matrix(0.39548023,0,0,0.39548023,165.57749,73.785837)"><polygon
         points="0.15,11.37 1.15,10.22 8.93,15.27 16.85,10.21 17.85,11.36 8.93,17.11 "
         fill="#50e6ff"
         id="polygon3427" /><polygon
         points="8.93,14.23 1.73,9.58 8.93,1 16.28,9.59 "
         fill="#ffffff"
         id="polygon3429" /><polygon
         points="1.73,9.58 8.93,1 8.93,14.23 "
         fill="#50e6ff"
         id="polygon3431" /><polygon
         points="16.28,9.59 8.93,1 8.93,14.23 "
         fill="url(#bb67b154-af8f-4a53-a9ce-aa046b9398e9)"
         id="polygon3433"
         style="fill:url(#bb67b154-af8f-4a53-a9ce-aa046b9398e9)" /><polygon
         points="8.93,14.23 8.93,7.83 16.28,9.59 "
         fill="#53b1e0"
         id="polygon3435" /><polygon
         points="8.93,7.83 8.93,14.23 1.73,9.58 "
         fill="#9cebff"
         id="polygon3437" /><polygon
         points="8.93,15.27 8.93,17.11 17.85,11.36 16.85,10.21 "
         fill="url(#a47d7138-084a-471d-8d63-744e75b9e8a3)"
         id="polygon3439"
         style="fill:url(#a47d7138-084a-471d-8d63-744e75b9e8a3)" /><g
         id="g3445"><path
           id="e189a61f-631a-4122-bb2b-079e86004d96"
           d="m 16.32,11.88 a 1.16,1.16 0 0 0 0,-1.65 v 0 l -2,-2 a 1.16,1.16 0 0 0 -1.64,0 v 0 l -2,2 a 1.18,1.18 0 0 0 0,1.65 l 1.67,1.67 a 0.32,0.32 0 0 1 0.09,0.23 v 3.1 a 0.36,0.36 0 0 0 0.12,0.28 l 0.76,0.76 a 0.25,0.25 0 0 0 0.37,0 l 0.73,-0.73 v 0 l 0.44,-0.44 a 0.15,0.15 0 0 0 0,-0.21 l -0.31,-0.31 a 0.16,0.16 0 0 1 0,-0.24 l 0.31,-0.31 a 0.16,0.16 0 0 0 0,-0.22 l -0.31,-0.31 a 0.15,0.15 0 0 1 0,-0.23 l 0.31,-0.32 a 0.15,0.15 0 0 0 0,-0.21 L 14.42,13.95 V 13.79 Z M 13.5,8.71 A 0.66,0.66 0 1 1 12.84,9.37 0.66,0.66 0 0 1 13.5,8.71 Z"
           fill="#ffca00" /><path
           id="fb7033ee-4650-4886-80c7-eddf62560f85"
           d="m 13,17 v 0 a 0.14,0.14 0 0 0 0.24,-0.11 V 14.33 A 0.16,0.16 0 0 0 13.18,14.2 v 0 a 0.14,0.14 0 0 0 -0.22,0.13 v 2.51 A 0.15,0.15 0 0 0 13,17 Z"
           fill="#ff9300"
           opacity="0.75" /><rect
           id="b166b8c2-b9ee-4c3d-bf7a-77bd5ce0570b"
           x="11.9"
           y="10.9"
           width="3.29"
           height="0.38999999"
           rx="0.18000001"
           fill="#ff9300"
           opacity="0.75" /><rect
           id="baf437fe-3483-4a25-94ba-1e84a64cd2eb"
           x="11.9"
           y="11.53"
           width="3.29"
           height="0.38999999"
           rx="0.18000001"
           fill="#ff9300"
           opacity="0.75" /></g></g><text
       xml:space="preserve"
       style="font-style:normal;font-variant:normal;font-weight:normal;font-stretch:normal;font-size:3.175px;font-family:Calibri;-inkscape-font-specification:Calibri;text-align:start;text-anchor:start;fill:#000000;fill-opacity:1;stroke:none;stroke-width:0.264999;stroke-dasharray:none;stroke-dashoffset:0;stroke-opacity:1"
       x="158.22705"
       y="84.187874"
       id="text3476"><tspan
         sodipodi:role="line"
         id="tspan3474"
         style="stroke-width:0.265"
         x="158.22705"
         y="84.187874">Managed Identity</tspan></text><text
       xml:space="preserve"
       style="font-style:normal;font-variant:normal;font-weight:normal;font-stretch:normal;font-size:3.175px;font-family:Calibri;-inkscape-font-specification:Calibri;text-align:center;text-anchor:middle;fill:#000000;fill-opacity:1;stroke:none;stroke-width:0.264999;stroke-dasharray:none;stroke-dashoffset:0;stroke-opacity:1"
       x="169.32147"
       y="60.904545"
       id="text3480"><tspan
         sodipodi:role="line"
         id="tspan3478"
         style="text-align:center;text-anchor:middle;stroke-width:0.265"
         x="169.32147"
         y="60.904545">Web App</tspan></text><text
       xml:space="preserve"
       style="font-style:normal;font-variant:normal;font-weight:normal;font-stretch:normal;font-size:3.175px;font-family:Calibri;-inkscape-font-specification:Calibri;text-align:center;text-anchor:middle;fill:#000000;fill-opacity:1;stroke:none;stroke-width:0.264999;stroke-dasharray:none;stroke-dashoffset:0;stroke-opacity:1"
       x="130.69232"
       y="60.904545"
       id="text3547"><tspan
         sodipodi:role="line"
         id="tspan3545"
         style="text-align:center;text-anchor:middle;stroke-width:0.265"
         x="130.69232"
         y="60.904545">App Service Plan</tspan></text></g><metadata
     id="metadata3549"><rdf:RDF><cc:Work
         rdf:about=""><dc:title>Azure Resources</dc:title></cc:Work></rdf:RDF></metadata></svg>
